<svg width="256" height="256" viewBox="0 0 256 256" fill="none" xmlns="http://www.w3.org/2000/svg">
<rect width="256" height="256" fill="black"/>
<rect x="4" y="4" width="248" height="248" fill="#D9D9D9"/>
<path d="M61.0497 140V137.955L68.7315 129.545C69.633 128.561 70.3755 127.705 70.9588 126.977C71.5421 126.242 71.974 125.553 72.2543 124.909C72.5421 124.258 72.6861 123.576 72.6861 122.864C72.6861 122.045 72.4891 121.337 72.0952 120.739C71.7088 120.14 71.1785 119.678 70.5043 119.352C69.83 119.027 69.0724 118.864 68.2315 118.864C67.3376 118.864 66.5573 119.049 65.8906 119.42C65.2315 119.784 64.7202 120.295 64.3565 120.955C64.0005 121.614 63.8224 122.386 63.8224 123.273H61.1406C61.1406 121.909 61.455 120.712 62.0838 119.682C62.7126 118.652 63.5687 117.848 64.652 117.273C65.7429 116.697 66.9664 116.409 68.3224 116.409C69.6861 116.409 70.8944 116.697 71.9474 117.273C73.0005 117.848 73.8262 118.625 74.4247 119.602C75.0232 120.58 75.3224 121.667 75.3224 122.864C75.3224 123.72 75.1671 124.557 74.8565 125.375C74.5535 126.186 74.0232 127.091 73.2656 128.091C72.5156 129.083 71.474 130.295 70.1406 131.727L64.9134 137.318V137.5H75.7315V140H61.0497ZM87.6974 140.318C86.3641 140.318 85.1634 140.053 84.0952 139.523C83.027 138.992 82.1709 138.265 81.527 137.341C80.883 136.417 80.5308 135.364 80.4702 134.182H83.1974C83.3035 135.235 83.7808 136.106 84.6293 136.795C85.4853 137.477 86.508 137.818 87.6974 137.818C88.652 137.818 89.5005 137.595 90.2429 137.148C90.9929 136.701 91.58 136.087 92.0043 135.307C92.4361 134.519 92.652 133.629 92.652 132.636C92.652 131.621 92.4285 130.716 91.9815 129.92C91.5421 129.117 90.9361 128.485 90.1634 128.023C89.3906 127.561 88.508 127.326 87.5156 127.318C86.8035 127.311 86.0724 127.42 85.3224 127.648C84.5724 127.867 83.955 128.152 83.4702 128.5L80.8338 128.182L82.2429 116.727H94.3338V119.227H84.6065L83.7884 126.091H83.9247C84.402 125.712 85.0005 125.398 85.7202 125.148C86.4399 124.898 87.1899 124.773 87.9702 124.773C89.3944 124.773 90.6634 125.114 91.777 125.795C92.8982 126.47 93.777 127.394 94.4134 128.568C95.0573 129.742 95.3793 131.083 95.3793 132.591C95.3793 134.076 95.0459 135.402 94.3793 136.568C93.7202 137.727 92.8111 138.644 91.652 139.318C90.4929 139.985 89.1747 140.318 87.6974 140.318ZM107.621 140.318C106.666 140.303 105.712 140.121 104.757 139.773C103.803 139.424 102.931 138.837 102.143 138.011C101.356 137.178 100.723 136.053 100.246 134.636C99.7685 133.212 99.5298 131.424 99.5298 129.273C99.5298 127.212 99.723 125.386 100.109 123.795C100.496 122.197 101.056 120.852 101.791 119.761C102.526 118.663 103.412 117.83 104.45 117.261C105.496 116.693 106.674 116.409 107.984 116.409C109.287 116.409 110.446 116.67 111.462 117.193C112.484 117.708 113.318 118.428 113.962 119.352C114.606 120.277 115.022 121.341 115.212 122.545H112.439C112.181 121.5 111.681 120.633 110.939 119.943C110.196 119.254 109.212 118.909 107.984 118.909C106.181 118.909 104.761 119.693 103.723 121.261C102.693 122.83 102.174 125.03 102.166 127.864H102.348C102.772 127.22 103.276 126.67 103.859 126.216C104.45 125.754 105.102 125.398 105.814 125.148C106.526 124.898 107.28 124.773 108.075 124.773C109.409 124.773 110.628 125.106 111.734 125.773C112.84 126.432 113.727 127.345 114.393 128.511C115.06 129.67 115.393 131 115.393 132.5C115.393 133.939 115.071 135.258 114.428 136.455C113.784 137.644 112.878 138.591 111.712 139.295C110.553 139.992 109.189 140.333 107.621 140.318ZM107.621 137.818C108.575 137.818 109.431 137.58 110.189 137.102C110.954 136.625 111.556 135.985 111.996 135.182C112.443 134.379 112.666 133.485 112.666 132.5C112.666 131.538 112.45 130.663 112.018 129.875C111.594 129.08 111.007 128.447 110.257 127.977C109.515 127.508 108.666 127.273 107.712 127.273C106.992 127.273 106.321 127.417 105.7 127.705C105.079 127.985 104.534 128.371 104.064 128.864C103.602 129.356 103.238 129.92 102.973 130.557C102.708 131.186 102.575 131.848 102.575 132.545C102.575 133.47 102.791 134.333 103.223 135.136C103.662 135.939 104.261 136.587 105.018 137.08C105.784 137.572 106.651 137.818 107.621 137.818ZM133.544 135.818L120.726 123L122.453 121.273L135.271 134.091L133.544 135.818ZM122.453 135.818L120.726 134.091L133.544 121.273L135.271 123L122.453 135.818ZM140.956 140V137.955L148.638 129.545C149.539 128.561 150.282 127.705 150.865 126.977C151.448 126.242 151.88 125.553 152.161 124.909C152.448 124.258 152.592 123.576 152.592 122.864C152.592 122.045 152.395 121.337 152.001 120.739C151.615 120.14 151.085 119.678 150.411 119.352C149.736 119.027 148.979 118.864 148.138 118.864C147.244 118.864 146.464 119.049 145.797 119.42C145.138 119.784 144.626 120.295 144.263 120.955C143.907 121.614 143.729 122.386 143.729 123.273H141.047C141.047 121.909 141.361 120.712 141.99 119.682C142.619 118.652 143.475 117.848 144.558 117.273C145.649 116.697 146.873 116.409 148.229 116.409C149.592 116.409 150.801 116.697 151.854 117.273C152.907 117.848 153.732 118.625 154.331 119.602C154.929 120.58 155.229 121.667 155.229 122.864C155.229 123.72 155.073 124.557 154.763 125.375C154.46 126.186 153.929 127.091 153.172 128.091C152.422 129.083 151.38 130.295 150.047 131.727L144.82 137.318V137.5H155.638V140H140.956ZM167.604 140.318C166.27 140.318 165.07 140.053 164.001 139.523C162.933 138.992 162.077 138.265 161.433 137.341C160.789 136.417 160.437 135.364 160.376 134.182H163.104C163.21 135.235 163.687 136.106 164.536 136.795C165.392 137.477 166.414 137.818 167.604 137.818C168.558 137.818 169.407 137.595 170.149 137.148C170.899 136.701 171.486 136.087 171.911 135.307C172.342 134.519 172.558 133.629 172.558 132.636C172.558 131.621 172.335 130.716 171.888 129.92C171.448 129.117 170.842 128.485 170.07 128.023C169.297 127.561 168.414 127.326 167.422 127.318C166.71 127.311 165.979 127.42 165.229 127.648C164.479 127.867 163.861 128.152 163.376 128.5L160.74 128.182L162.149 116.727H174.24V119.227H164.513L163.695 126.091H163.831C164.308 125.712 164.907 125.398 165.626 125.148C166.346 124.898 167.096 124.773 167.876 124.773C169.301 124.773 170.57 125.114 171.683 125.795C172.804 126.47 173.683 127.394 174.32 128.568C174.964 129.742 175.286 131.083 175.286 132.591C175.286 134.076 174.952 135.402 174.286 136.568C173.626 137.727 172.717 138.644 171.558 139.318C170.399 139.985 169.081 140.318 167.604 140.318ZM187.527 140.318C186.572 140.303 185.618 140.121 184.663 139.773C183.709 139.424 182.838 138.837 182.05 138.011C181.262 137.178 180.629 136.053 180.152 134.636C179.675 133.212 179.436 131.424 179.436 129.273C179.436 127.212 179.629 125.386 180.016 123.795C180.402 122.197 180.963 120.852 181.697 119.761C182.432 118.663 183.319 117.83 184.357 117.261C185.402 116.693 186.58 116.409 187.891 116.409C189.194 116.409 190.353 116.67 191.368 117.193C192.391 117.708 193.224 118.428 193.868 119.352C194.512 120.277 194.929 121.341 195.118 122.545H192.345C192.088 121.5 191.588 120.633 190.845 119.943C190.103 119.254 189.118 118.909 187.891 118.909C186.088 118.909 184.667 119.693 183.629 121.261C182.599 122.83 182.08 125.03 182.072 127.864H182.254C182.679 127.22 183.182 126.67 183.766 126.216C184.357 125.754 185.008 125.398 185.72 125.148C186.432 124.898 187.186 124.773 187.982 124.773C189.315 124.773 190.535 125.106 191.641 125.773C192.747 126.432 193.633 127.345 194.3 128.511C194.966 129.67 195.3 131 195.3 132.5C195.3 133.939 194.978 135.258 194.334 136.455C193.69 137.644 192.785 138.591 191.618 139.295C190.459 139.992 189.095 140.333 187.527 140.318ZM187.527 137.818C188.482 137.818 189.338 137.58 190.095 137.102C190.86 136.625 191.463 135.985 191.902 135.182C192.349 134.379 192.572 133.485 192.572 132.5C192.572 131.538 192.357 130.663 191.925 129.875C191.5 129.08 190.913 128.447 190.163 127.977C189.421 127.508 188.572 127.273 187.618 127.273C186.898 127.273 186.228 127.417 185.607 127.705C184.985 127.985 184.44 128.371 183.97 128.864C183.508 129.356 183.144 129.92 182.879 130.557C182.614 131.186 182.482 131.848 182.482 132.545C182.482 133.47 182.697 134.333 183.129 135.136C183.569 135.939 184.167 136.587 184.925 137.08C185.69 137.572 186.557 137.818 187.527 137.818Z" fill="black"/>
</svg>
